<?xml version="1.0" encoding="UTF-8"?>
<svg width="64" height="64" viewBox="0 0 64 64" xmlns="http://www.w3.org/2000/svg">
  <defs>
    <linearGradient id="mountainGradient" x1="0%" y1="100%" x2="100%" y2="0%">
      <stop offset="0%" style="stop-color:#4A90E2;stop-opacity:1" />
      <stop offset="50%" style="stop-color:#7ED321;stop-opacity:1" />
      <stop offset="100%" style="stop-color:#F5A623;stop-opacity:1" />
    </linearGradient>
    
    <linearGradient id="trackGradient" x1="0%" y1="0%" x2="100%" y2="100%">
      <stop offset="0%" style="stop-color:#FF6B6B;stop-opacity:1" />
      <stop offset="100%" style="stop-color:#4ECDC4;stop-opacity:1" />
    </linearGradient>
    
    <radialGradient id="globeGradient" cx="50%" cy="30%" r="70%">
      <stop offset="0%" style="stop-color:#87CEEB;stop-opacity:1" />
      <stop offset="70%" style="stop-color:#4682B4;stop-opacity:1" />
      <stop offset="100%" style="stop-color:#2E8B57;stop-opacity:1" />
    </radialGradient>
    
    <filter id="shadow" x="-50%" y="-50%" width="200%" height="200%">
      <feDropShadow dx="1" dy="1" stdDeviation="2" flood-color="#000000" flood-opacity="0.3"/>
    </filter>
  </defs>
  
  <!-- 背景圆形 -->
  <circle cx="32" cy="32" r="30" fill="url(#globeGradient)" filter="url(#shadow)"/>
  
  <!-- 地图网格线 -->
  <g stroke="#FFFFFF" stroke-width="0.3" opacity="0.3">
    <line x1="16" y1="8" x2="16" y2="56"/>
    <line x1="32" y1="8" x2="32" y2="56"/>
    <line x1="48" y1="8" x2="48" y2="56"/>
    <line x1="8" y1="16" x2="56" y2="16"/>
    <line x1="8" y1="32" x2="56" y2="32"/>
    <line x1="8" y1="48" x2="56" y2="48"/>
  </g>
  
  <!-- 3D山脉 -->
  <g transform="translate(32, 32)">
    <path d="M-20,12 L-12,6 L-6,9 L0,3 L6,7 L12,4 L20,10 L20,18 L-20,18 Z" 
          fill="url(#mountainGradient)" 
          filter="url(#shadow)"/>
    
    <!-- 山峰高光 -->
    <path d="M-12,6 L-6,9 L0,3 L6,7 L12,4 L12,10 L-12,10 Z" 
          fill="#FFFFFF" 
          opacity="0.2"/>
  </g>
  
  <!-- 运动轨迹线 -->
  <g stroke="url(#trackGradient)" stroke-width="1.5" fill="none">
    <path d="M10,50 Q20,45 32,40 Q44,35 54,30" 
          stroke-dasharray="2,2" 
          opacity="0.8"/>
  </g>
  
  <!-- 轨迹点 -->
  <g fill="url(#trackGradient)">
    <circle cx="10" cy="50" r="1.5"/>
    <circle cx="32" cy="40" r="2"/>
    <circle cx="54" cy="30" r="1.5"/>
  </g>
  
  <!-- 指南针 -->
  <g opacity="0.8">
    <circle cx="50" cy="14" r="4" fill="#FFFFFF" stroke="#2C3E50" stroke-width="0.5"/>
    <line x1="50" y1="10" x2="50" y2="18" stroke="#FF6B6B" stroke-width="1"/>
    <line x1="46" y1="14" x2="54" y2="14" stroke="#FF6B6B" stroke-width="1"/>
    <circle cx="50" cy="14" r="0.8" fill="#FF6B6B"/>
  </g>
</svg>
